<?xml version="1.0" encoding="utf-8"?>
<!-- Generator: Adobe Illustrator 19.2.1, SVG Export Plug-In . SVG Version: 6.00 Build 0)  -->
<svg version="1.1" id="Layer_1" xmlns="http://www.w3.org/2000/svg" xmlns:xlink="http://www.w3.org/1999/xlink" x="0px" y="0px"
	 viewBox="0 0 38.5 30" style="enable-background:new 0 0 38.5 30;" xml:space="preserve">
<style type="text/css">
	.st0{fill:#FFFFFF;}
</style>
<title>speaker</title>
<path class="st0" d="M0.1,9.6c0-0.2,0.1-0.4,0.2-0.5c0.2-0.5,0.7-0.8,1.2-0.8c0.4,0,0.8,0,1.2,0h7.2c0.1,0,0.1,0,0.2-0.1l9-7.8
	c0.5-0.5,1.4-0.5,2,0c0,0,0,0,0,0c0.2,0.2,0.4,0.6,0.4,0.9c0,0,0,0.1,0,0.2c0,9,0,18,0,27c0,0.5-0.2,0.9-0.6,1.2
	c-0.2,0.1-0.4,0.2-0.6,0.2h-0.1h-0.3c-0.4-0.1-0.8-0.3-1.1-0.6l-0.2-0.1l-8.7-7.5c-0.1-0.1-0.2-0.1-0.2-0.1H1.4
	c-0.5,0-1-0.3-1.2-0.8c-0.1-0.2-0.1-0.4-0.2-0.6C0.1,20.3,0.1,9.6,0.1,9.6z"/>
<path class="st0" d="M38.5,15.5c0,0.3,0,0.5,0,0.8c-0.1,1.9-0.4,3.8-1,5.6c-0.8,2.7-2.1,5.2-3.9,7.5c-0.2,0.3-0.6,0.6-1,0.6
	c-0.8,0.1-1.5-0.4-1.6-1.2c-0.1-0.3,0-0.7,0.2-1c0.3-0.5,0.7-0.9,1-1.3c2.5-3.7,3.7-8.1,3.4-12.6c-0.2-3.4-1.3-6.8-3.2-9.7
	c-0.4-0.6-0.8-1.2-1.2-1.7c-0.5-0.6-0.4-1.5,0.2-2c0.1,0,0.1-0.1,0.2-0.1C32.3,0,33,0.2,33.4,0.7c0.4,0.5,0.8,1,1.2,1.6
	c1.5,2.3,2.6,4.8,3.2,7.4c0.3,1.2,0.5,2.4,0.6,3.6c0,0.4,0,0.8,0.1,1.2c0,0.1,0,0.1,0,0.2L38.5,15.5L38.5,15.5z"/>
<path class="st0" d="M33.4,15.1c0,3.8-1.2,7.5-3.5,10.6c-0.4,0.6-1.3,0.8-1.9,0.3c-0.3-0.2-0.5-0.5-0.5-0.8c-0.1-0.4,0-0.8,0.2-1.1
	c0.4-0.6,0.8-1.2,1.1-1.8c2.6-4.9,2.4-10.8-0.6-15.4C28,6.6,27.8,6.3,27.6,6c-0.4-0.7-0.2-1.5,0.5-1.9c0.6-0.4,1.4-0.2,1.8,0.3
	c1.3,1.8,2.3,3.8,2.9,6c0.3,1.3,0.6,2.6,0.6,3.9c0,0.1,0,0.3,0,0.4S33.4,14.9,33.4,15.1z"/>
<path class="st0" d="M28,14.9c0,2.4-0.6,4.7-1.8,6.7c-0.2,0.3-0.5,0.6-0.9,0.7c-0.5,0.2-1.1,0-1.5-0.5c-0.3-0.4-0.4-1-0.1-1.5
	c0.3-0.5,0.6-1,0.8-1.6c0.4-0.9,0.6-1.8,0.7-2.8c0.2-2.2-0.3-4.3-1.5-6.2c-0.5-0.6-0.4-1.5,0.2-2c0.6-0.5,1.5-0.4,2,0.2
	c0.1,0.1,0.2,0.2,0.2,0.3c0.4,0.7,0.8,1.3,1,2.1c0.5,1.2,0.8,2.4,0.9,3.6C27.9,14.4,27.9,14.8,28,14.9z"/>
</svg>
